Join the Road Warrior and Danny Glover in the full Lethal Weapon Tetralogy in 820MBs of 820mb goodness. Welcome to the Recapstore.

.srt Subtitles included. Please seed to at least a 1.5 ratio, which shouldn't be too hard considering the file size ;)

(Wikipedia) Lethal Weapon is a series of films starring Mel Gibson and Danny Glover as a pair of L.A.P.D. detectives. All four films in the series were directed by Richard Donner and also share many of the same core cast members.

The parody sketch "Lethal Weapon 5" by the cast of It's Always Sunny in Philadelphia is included for lulz as well as quality preview purposes.

Sample mediainfo from Lethal Weapon 1:

Codec ID                                 : mp42
File size                                : 211 MiB
Duration                                 : 1h 49mn
Overall bit rate mode                    : Variable
Overall bit rate                         : 269 Kbps
Encoded date                             : UTC 2012-12-16 20:54:53
Tagged date                              : UTC 2012-12-17 02:41:31

Video
ID                                       : 1
Format                                   : AVC
Format/Info                              : Advanced Video Codec
Format profile                           : High@L2.1
Format settings, CABAC                   : Yes
Format settings, ReFrames                : 15 frames
Codec ID                                 : avc1
Codec ID/Info                            : Advanced Video Coding
Duration                                 : 1h 49mn
Bit rate mode                            : Variable
Bit rate                                 : 201 Kbps
Width                                    : 352 pixels
Height                                   : 192 pixels
Display aspect ratio                     : 16:9
Frame rate mode                          : Variable
Frame rate                               : 23.976 fps
Minimum frame rate                       : 5.994 fps
Maximum frame rate                       : 23.981 fps
Color space                              : YUV
Chroma subsampling                       : 4:2:0
Bit depth                                : 8 bits
Scan type                                : Progressive
Bits/(Pixel*Frame)                       : 0.124
Stream size                              : 157 MiB (75%)
Writing library                          : x264 core 120


Audio
ID                                       : 2
Format                                   : AAC
Format/Info                              : Advanced Audio Codec
Format profile                           : LC
Codec ID                                 : 40
Duration                                 : 1h 49mn
Bit rate mode                            : Variable
Bit rate                                 : 64.0 Kbps
Maximum bit rate                         : 112 Kbps
Channel(s)                               : 2 channels
Channel positions                        : Front: L R
Sampling rate                            : 24.0 KHz
Compression mode                         : Lossy
Delay relative to video                  : 209ms
Stream size                              : 50.2 MiB (24%)
Language                                 : English
Encoded date                             : UTC 2012-12-16 20:54:53
Tagged date                              : UTC 2012-12-17 02:41:30